<svg width="42" height="42" viewBox="0 0 42 42" fill="none" xmlns="http://www.w3.org/2000/svg">
<path d="M25.8195 17.5C27.51 17.5 28.882 18.872 28.882 20.5625V26.25H28.875V28H13.125V22.75H13.1285V20.5625C13.1285 18.872 14.4987 17.5 16.191 17.5H25.8195ZM38.5 20.5625C38.5 19.7503 38.1773 18.9713 37.603 18.397C37.0287 17.8227 36.2497 17.5 35.4375 17.5H29.5312C30.219 18.3313 30.632 19.3988 30.632 20.5625V22.75H30.625V28H37.1875C37.5356 28 37.8694 27.8617 38.1156 27.6156C38.3617 27.3694 38.5 27.0356 38.5 26.6875V20.5625ZM11.375 26.25H11.3785V20.5625L11.3943 20.1775C11.4675 19.1936 11.8469 18.2573 12.4792 17.5H6.5625L6.3105 17.5105C5.54452 17.5737 4.83033 17.9227 4.30969 18.4881C3.78905 19.0534 3.50003 19.7939 3.5 20.5625V26.6875C3.5 27.412 4.088 28 4.8125 28H11.375V26.25ZM21 5.25C22.3924 5.25 23.7277 5.80312 24.7123 6.78769C25.6969 7.77226 26.25 9.10761 26.25 10.5C26.25 11.8924 25.6969 13.2277 24.7123 14.2123C23.7277 15.1969 22.3924 15.75 21 15.75C19.6076 15.75 18.2723 15.1969 17.2877 14.2123C16.3031 13.2277 15.75 11.8924 15.75 10.5C15.75 9.10761 16.3031 7.77226 17.2877 6.78769C18.2723 5.80312 19.6076 5.25 21 5.25ZM32.375 7C33.5353 7 34.6481 7.46094 35.4686 8.28141C36.2891 9.10188 36.75 10.2147 36.75 11.375C36.75 12.5353 36.2891 13.6481 35.4686 14.4686C34.6481 15.2891 33.5353 15.75 32.375 15.75C31.2147 15.75 30.1019 15.2891 29.2814 14.4686C28.4609 13.6481 28 12.5353 28 11.375C28 10.2147 28.4609 9.10188 29.2814 8.28141C30.1019 7.46094 31.2147 7 32.375 7ZM9.625 7C10.7853 7 11.8981 7.46094 12.7186 8.28141C13.5391 9.10188 14 10.2147 14 11.375C14 12.5353 13.5391 13.6481 12.7186 14.4686C11.8981 15.2891 10.7853 15.75 9.625 15.75C8.46468 15.75 7.35188 15.2891 6.53141 14.4686C5.71094 13.6481 5.25 12.5353 5.25 11.375C5.25 10.2147 5.71094 9.10188 6.53141 8.28141C7.35188 7.46094 8.46468 7 9.625 7ZM3.5 31.0625C3.5 30.7144 3.63828 30.3806 3.88442 30.1344C4.13056 29.8883 4.4644 29.75 4.8125 29.75H37.1875C37.5356 29.75 37.8694 29.8883 38.1156 30.1344C38.3617 30.3806 38.5 30.7144 38.5 31.0625V31.9375C38.5 33.678 37.8086 35.3472 36.5779 36.5779C35.3472 37.8086 33.678 38.5 31.9375 38.5H10.0625C8.32202 38.5 6.65282 37.8086 5.42211 36.5779C4.1914 35.3472 3.5 33.678 3.5 31.9375V31.0625Z" fill="#DA0A03"/>
</svg>
