<svg width="42" height="42" viewBox="0 0 42 42" fill="none" xmlns="http://www.w3.org/2000/svg">
<path d="M12.4219 24.5167C12.4617 21.1353 13.8227 17.9036 16.2139 15.5124C18.6052 13.1212 21.8369 11.7602 25.2183 11.7203C24.7471 8.98217 23.2664 6.52022 21.0686 4.82044C18.8708 3.12066 16.1157 2.30658 13.347 2.53891C10.5784 2.77124 7.99742 4.03309 6.11366 6.07536C4.2299 8.11764 3.18024 10.7919 3.17188 13.5703C3.17147 16.1937 4.10029 18.7325 5.79356 20.7364C7.48684 22.7402 9.83512 24.0795 12.4219 24.5167ZM18.6268 9.21725C18.8002 9.39071 18.8976 9.62595 18.8976 9.87123C18.8976 10.1165 18.8002 10.3517 18.6268 10.5252L13.0768 16.0752C12.9909 16.1613 12.8888 16.2297 12.7764 16.2763C12.664 16.3229 12.5435 16.347 12.4219 16.347C12.3002 16.347 12.1797 16.3229 12.0674 16.2763C11.955 16.2297 11.8529 16.1613 11.767 16.0752L8.99197 13.3002C8.90597 13.2142 8.83775 13.1121 8.79121 12.9997C8.74466 12.8874 8.72071 12.7669 8.72071 12.6453C8.72071 12.5237 8.74466 12.4032 8.79121 12.2909C8.83775 12.1785 8.90597 12.0764 8.99197 11.9904C9.07798 11.9044 9.18008 11.8362 9.29245 11.7896C9.40481 11.7431 9.52525 11.7191 9.64687 11.7191C9.7685 11.7191 9.88894 11.7431 10.0013 11.7896C10.1137 11.8362 10.2158 11.9044 10.3018 11.9904L12.4219 14.1124L17.317 9.2154C17.4029 9.12926 17.505 9.06091 17.6174 9.01428C17.7297 8.96765 17.8502 8.94365 17.9719 8.94365C18.0935 8.94365 18.214 8.96765 18.3264 9.01428C18.4388 9.06091 18.5408 9.13111 18.6268 9.21725ZM25.3719 35.7703C28.3158 35.7703 31.1391 34.6008 33.2208 32.5192C35.3024 30.4375 36.4719 27.6142 36.4719 24.6703C36.4719 21.7264 35.3024 18.9031 33.2208 16.8214C31.1391 14.7398 28.3158 13.5703 25.3719 13.5703C22.428 13.5703 19.6046 14.7398 17.523 16.8214C15.4413 18.9031 14.2719 21.7264 14.2719 24.6703C14.2719 27.6142 15.4413 30.4375 17.523 32.5192C19.6046 34.6008 22.428 35.7703 25.3719 35.7703ZM22.3268 20.3154L25.3719 23.3623L28.417 20.3154C28.5907 20.1417 28.8262 20.0441 29.0719 20.0441C29.3175 20.0441 29.5531 20.1417 29.7268 20.3154C29.9005 20.4891 29.998 20.7247 29.998 20.9703C29.998 21.2159 29.9005 21.4515 29.7268 21.6252L26.6798 24.6703L29.7268 27.7154C29.9005 27.8891 29.998 28.1247 29.998 28.3703C29.998 28.6159 29.9005 28.8515 29.7268 29.0252C29.5531 29.1989 29.3175 29.2965 29.0719 29.2965C28.8262 29.2965 28.5907 29.1989 28.417 29.0252L25.3719 25.9782L22.3268 29.0252C22.1531 29.1989 21.9175 29.2965 21.6719 29.2965C21.4262 29.2965 21.1907 29.1989 21.017 29.0252C20.8433 28.8515 20.7457 28.6159 20.7457 28.3703C20.7457 28.1247 20.8433 27.8891 21.017 27.7154L24.0639 24.6703L21.017 21.6252C20.931 21.5392 20.8627 21.4371 20.8162 21.3247C20.7697 21.2124 20.7457 21.0919 20.7457 20.9703C20.7457 20.8487 20.7697 20.7282 20.8162 20.6159C20.8627 20.5035 20.931 20.4014 21.017 20.3154C21.103 20.2294 21.2051 20.1612 21.3174 20.1146C21.4298 20.0681 21.5502 20.0441 21.6719 20.0441C21.7935 20.0441 21.9139 20.0681 22.0263 20.1146C22.1387 20.1612 22.2408 20.2294 22.3268 20.3154Z" fill="#DA0A03"/>
</svg>
